<svg xmlns="http://www.w3.org/2000/svg" xmlns:xlink="http://www.w3.org/1999/xlink" width="691" zoomAndPan="magnify" viewBox="0 0 518.25 135.000003" height="180" preserveAspectRatio="xMidYMid meet" version="1.0"><defs><clipPath id="17ef8d5aa4"><path d="M 1.53125 0 L 515.972656 0 L 515.972656 134.007812 L 1.53125 134.007812 Z M 1.53125 0 " clip-rule="nonzero"/></clipPath></defs><g clip-path="url(#17ef8d5aa4)"><path fill="#ffffff" d="M 1.53125 0 L 515.972656 0 L 515.972656 134.007812 L 1.53125 134.007812 Z M 1.53125 0 " fill-opacity="1" fill-rule="nonzero"/><path fill="#ffffff" d="M 1.53125 0 L 515.972656 0 L 515.972656 134.007812 L 1.53125 134.007812 Z M 1.53125 0 " fill-opacity="1" fill-rule="nonzero"/></g><path fill="#e30e13" d="M 72.671875 18.929688 L 119.160156 18.929688 L 95.917969 60.316406 Z M 72.671875 18.929688 " fill-opacity="1" fill-rule="nonzero"/><path fill="#9e9e9e" d="M 195.457031 18.929688 L 241.945312 18.929688 L 218.699219 60.316406 Z M 195.457031 18.929688 " fill-opacity="1" fill-rule="nonzero"/><path fill="#e30e13" d="M 181.871094 117.5625 L 126.707031 24.445312 L 103.464844 67.644531 L 133.875 117.5625 Z M 181.871094 117.5625 " fill-opacity="1" fill-rule="nonzero"/><path fill="#9e9e9e" d="M 244.585938 117.5625 L 186.175781 18.929688 L 136.519531 18.929688 L 196.589844 117.5625 Z M 244.585938 117.5625 " fill-opacity="1" fill-rule="nonzero"/><path fill="#e30e13" d="M 61.730469 18.929688 L 8.828125 117.5625 L 119.160156 117.5625 Z M 61.730469 18.929688 " fill-opacity="1" fill-rule="nonzero"/></svg>