<?xml version="1.0" encoding="UTF-8"?>
<!-- Generator: Adobe Illustrator 27.2.0, SVG Export Plug-In . SVG Version: 6.00 Build 0)  -->
<svg xmlns="http://www.w3.org/2000/svg" xmlns:xlink="http://www.w3.org/1999/xlink" version="1.1" id="Capa_1" x="0px" y="0px" viewBox="0 0 691.4 180.4" style="enable-background:new 0 0 691.4 180.4;" xml:space="preserve">
<style type="text/css">
	.st0{fill:#E30E13;}
	.st1{fill:#9E9E9E;}
	.st2{fill:#010202;}
</style>
<g>
	<polygon class="st0" points="93.7,24.9 155.3,24.9 124.5,79.7  "></polygon>
	<polygon class="st1" points="256.4,24.9 318,24.9 287.2,79.7  "></polygon>
	<polygon class="st0" points="238.4,155.5 165.3,32.2 134.5,89.4 174.8,155.5  "></polygon>
	<polygon class="st1" points="321.5,155.5 244.1,24.9 178.3,24.9 257.9,155.5  "></polygon>
	<polygon class="st0" points="79.2,24.9 9.1,155.5 155.3,155.5  "></polygon>
	<g>
		<path class="st2" d="M387.4,61.5l6.7,1.8c-1.4,6-3.9,10.5-7.6,13.7c-3.6,3.1-8.1,4.7-13.4,4.7c-5.4,0-9.9-1.2-13.3-3.6    c-3.4-2.4-6-5.9-7.8-10.5c-1.8-4.6-2.7-9.5-2.7-14.7c0-5.7,1-10.7,3-15c2-4.3,4.9-7.5,8.6-9.7s7.8-3.3,12.3-3.3    c5.1,0,9.3,1.4,12.8,4.2c3.4,2.8,5.8,6.7,7.2,11.8l-6.6,1.7c-1.2-4-2.9-6.9-5.1-8.7c-2.2-1.8-5-2.7-8.4-2.7c-3.9,0-7.1,1-9.7,3    c-2.6,2-4.4,4.7-5.5,8.2c-1.1,3.4-1.6,6.9-1.6,10.6c0,4.7,0.6,8.8,1.9,12.2c1.3,3.5,3.2,6.1,5.8,7.8c2.6,1.7,5.5,2.6,8.6,2.6    c3.7,0,6.9-1.2,9.5-3.5C384.8,69.6,386.5,66.1,387.4,61.5z"></path>
		<path class="st2" d="M400.3,54c0-9.1,2.3-16.3,6.8-21.4c4.5-5.2,10.3-7.7,17.4-7.7c4.7,0,8.9,1.2,12.6,3.6    c3.7,2.4,6.6,5.8,8.6,10.1c2,4.3,2.9,9.3,2.9,14.7c0,5.6-1,10.6-3.1,15c-2.1,4.4-5,7.7-8.8,10c-3.8,2.3-7.9,3.4-12.3,3.4    c-4.8,0-9-1.2-12.8-3.7c-3.7-2.5-6.6-5.9-8.5-10.2C401.3,63.4,400.3,58.8,400.3,54z M407.2,54.1c0,6.6,1.6,11.8,4.9,15.6    c3.3,3.8,7.4,5.7,12.3,5.7c5,0,9.2-1.9,12.4-5.8c3.3-3.8,4.9-9.3,4.9-16.4c0-4.5-0.7-8.4-2.1-11.7c-1.4-3.3-3.4-5.9-6.1-7.8    c-2.7-1.8-5.7-2.8-9-2.8c-4.7,0-8.8,1.8-12.2,5.3C408.9,40,407.2,45.9,407.2,54.1z"></path>
		<path class="st2" d="M457.4,80.8V25.8h22.4c4.5,0,7.9,0.5,10.3,1.5c2.3,1,4.2,2.7,5.6,5.2c1.4,2.5,2.1,5.3,2.1,8.3    c0,3.9-1.2,7.2-3.5,9.9c-2.3,2.7-5.9,4.4-10.8,5.1c1.8,0.9,3.1,1.8,4,2.7c2,1.9,3.8,4.4,5.5,7.3l8.8,15h-8.4l-6.7-11.4    c-2-3.3-3.6-5.8-4.8-7.6c-1.3-1.7-2.4-3-3.4-3.7s-2-1.2-3.1-1.5c-0.8-0.2-2-0.3-3.7-0.3h-7.8v24.4H457.4z M464.1,50.1h14.4    c3.1,0,5.4-0.3,7.2-1c1.7-0.7,3-1.8,3.9-3.3c0.9-1.5,1.3-3.2,1.3-4.9c0-2.6-0.9-4.7-2.6-6.4c-1.7-1.7-4.5-2.5-8.2-2.5h-16V50.1z"></path>
		<path class="st2" d="M509.4,80.8V25.8h6.7v54.9H509.4z"></path>
		<path class="st2" d="M527.7,80.8V25.8h10.1l12,38.9c1.1,3.6,1.9,6.3,2.4,8.1c0.6-2,1.5-4.9,2.7-8.8l12.1-38.2h9v54.9h-6.4v-46    l-14.7,46h-6L534.1,34v46.8H527.7z"></path>
		<path class="st2" d="M584.6,54c0-9.1,2.3-16.3,6.8-21.4c4.5-5.2,10.3-7.7,17.4-7.7c4.7,0,8.9,1.2,12.6,3.6    c3.7,2.4,6.6,5.8,8.6,10.1s2.9,9.3,2.9,14.7c0,5.6-1,10.6-3.1,15c-2.1,4.4-5,7.7-8.8,10c-3.8,2.3-7.9,3.4-12.3,3.4    c-4.8,0-9-1.2-12.8-3.7c-3.7-2.5-6.6-5.9-8.5-10.2C585.6,63.4,584.6,58.8,584.6,54z M591.5,54.1c0,6.6,1.6,11.8,4.9,15.6    c3.3,3.8,7.4,5.7,12.3,5.7c5,0,9.2-1.9,12.4-5.8c3.3-3.8,4.9-9.3,4.9-16.4c0-4.5-0.7-8.4-2.1-11.7c-1.4-3.3-3.4-5.9-6.1-7.8    c-2.7-1.8-5.7-2.8-9-2.8c-4.7,0-8.8,1.8-12.2,5.3C593.2,40,591.5,45.9,591.5,54.1z"></path>
		<path class="st2" d="M641.5,80.8V25.8h6.9L674.9,69V25.8h6.4v54.9h-6.9l-26.5-43.2v43.2H641.5z"></path>
	</g>
	<g>
		<path class="st0" d="M353.9,155.5V103h5.4v4.9c1.3-1.9,2.7-3.4,4.3-4.3c1.6-1,3.5-1.4,5.8-1.4c3,0,5.6,0.8,7.9,2.5    c2.3,1.7,4,4,5.2,7.1c1.2,3,1.7,6.4,1.7,10c0,3.9-0.6,7.4-1.9,10.5c-1.3,3.1-3.1,5.5-5.6,7.1c-2.4,1.7-5,2.5-7.7,2.5    c-2,0-3.7-0.5-5.3-1.4c-1.6-0.9-2.9-2-3.9-3.4v18.5H353.9z M359.2,122.2c0,4.9,0.9,8.5,2.7,10.8c1.8,2.3,4,3.5,6.6,3.5    c2.6,0,4.9-1.2,6.8-3.6c1.9-2.4,2.8-6.2,2.8-11.2c0-4.8-0.9-8.5-2.7-10.9c-1.8-2.4-4-3.6-6.6-3.6c-2.5,0-4.7,1.3-6.7,3.8    C360.2,113.6,359.2,117.3,359.2,122.2z"></path>
		<path class="st0" d="M405.1,96v-7.4h5.9V96H405.1z M405.1,141V103h5.9V141H405.1z"></path>
		<path class="st0" d="M433.7,141V103h5.3v5.4c2.6-4.2,6.3-6.3,11.1-6.3c2.1,0,4,0.4,5.8,1.2c1.8,0.8,3.1,1.9,4,3.2    c0.9,1.3,1.5,2.9,1.8,4.8c0.2,1.2,0.3,3.3,0.3,6.3V141h-5.9v-23.1c0-2.6-0.2-4.6-0.7-5.9c-0.5-1.3-1.3-2.3-2.4-3.1    c-1.2-0.8-2.5-1.2-4.1-1.2c-2.5,0-4.7,0.9-6.5,2.6c-1.8,1.7-2.7,5-2.7,9.9V141H433.7z"></path>
		<path class="st0" d="M497.8,135.2l0.9,5.7c-1.7,0.4-3.2,0.6-4.5,0.6c-2.1,0-3.8-0.4-5-1.1c-1.2-0.7-2-1.7-2.5-2.9    c-0.5-1.2-0.7-3.7-0.7-7.6V108h-4.3v-5h4.3v-9.4l5.9-3.9V103h5.9v5h-5.9v22.2c0,1.8,0.1,3,0.3,3.5c0.2,0.5,0.5,0.9,1,1.3    c0.5,0.3,1.1,0.5,2,0.5C495.8,135.5,496.7,135.4,497.8,135.2z"></path>
		<path class="st0" d="M540.1,141v-5.6c-2.7,4.3-6.4,6.4-11.1,6.4c-2.1,0-4-0.4-5.8-1.3c-1.8-0.9-3.1-1.9-4-3.2    c-0.9-1.3-1.5-2.9-1.8-4.8c-0.2-1.3-0.4-3.3-0.4-6V103h5.9v21c0,3.4,0.1,5.6,0.4,6.8c0.4,1.7,1.2,3,2.4,4c1.2,1,2.7,1.4,4.5,1.4    c1.8,0,3.4-0.5,5-1.5c1.6-1,2.7-2.3,3.3-4c0.6-1.7,1-4.2,1-7.4V103h5.9V141H540.1z"></path>
		<path class="st0" d="M568.3,141V103h5.3v5.8c1.4-2.7,2.6-4.5,3.8-5.3c1.1-0.9,2.4-1.3,3.8-1.3c2,0,4,0.7,6.1,2.1l-2,6    c-1.4-0.9-2.9-1.4-4.3-1.4c-1.3,0-2.5,0.4-3.5,1.3c-1,0.8-1.8,2-2.2,3.5c-0.7,2.3-1,4.8-1,7.5V141H568.3z"></path>
		<path class="st0" d="M627.3,136.3c-2.2,2-4.3,3.5-6.3,4.3c-2,0.8-4.2,1.3-6.5,1.3c-3.8,0-6.8-1-8.8-3.1c-2.1-2-3.1-4.6-3.1-7.8    c0-1.9,0.4-3.6,1.2-5.1s1.8-2.8,3.1-3.7c1.3-0.9,2.7-1.6,4.3-2.1c1.2-0.3,2.9-0.7,5.3-1c4.8-0.6,8.3-1.4,10.5-2.2    c0-0.9,0-1.4,0-1.7c0-2.6-0.6-4.5-1.7-5.5c-1.5-1.5-3.8-2.2-6.7-2.2c-2.8,0-4.8,0.5-6.2,1.6c-1.3,1.1-2.3,2.9-2.9,5.6l-5.8-0.9    c0.5-2.7,1.4-4.9,2.6-6.5c1.2-1.7,2.9-2.9,5.2-3.8s4.9-1.3,7.9-1.3c3,0,5.4,0.4,7.3,1.1c1.9,0.8,3.2,1.7,4.1,2.9    c0.9,1.2,1.5,2.6,1.8,4.4c0.2,1.1,0.3,3.1,0.3,5.9v8.6c0,6,0.1,9.8,0.4,11.3c0.3,1.6,0.7,3.1,1.5,4.6h-6.2    C627.9,139.6,627.5,138.1,627.3,136.3z M626.8,121.9c-2.1,1-5.4,1.8-9.7,2.4c-2.4,0.4-4.2,0.8-5.2,1.3s-1.8,1.2-2.3,2.1    c-0.5,0.9-0.8,1.9-0.8,3.1c0,1.7,0.6,3.1,1.8,4.3c1.2,1.1,2.9,1.7,5.2,1.7c2.3,0,4.3-0.5,6.1-1.6c1.8-1.1,3.1-2.6,3.9-4.4    c0.6-1.5,1-3.6,1-6.4V121.9z"></path>
		<path class="st0" d="M653.3,129.6l5.8-1c0.3,2.5,1.2,4.5,2.7,5.9c1.5,1.4,3.6,2,6.3,2c2.7,0,4.7-0.6,6-1.8c1.3-1.2,2-2.6,2-4.2    c0-1.5-0.6-2.6-1.7-3.4c-0.8-0.6-2.8-1.3-6-2.2c-4.3-1.2-7.3-2.2-9-3.1c-1.7-0.9-2.9-2.1-3.8-3.6c-0.9-1.5-1.3-3.2-1.3-5.1    c0-1.7,0.4-3.3,1.1-4.7c0.7-1.4,1.7-2.6,2.9-3.6c0.9-0.7,2.2-1.4,3.8-1.9c1.6-0.5,3.3-0.8,5.1-0.8c2.7,0,5.1,0.4,7.2,1.3    c2.1,0.9,3.6,2,4.6,3.5c1,1.5,1.7,3.4,2,5.9l-5.8,0.9c-0.3-2-1-3.5-2.3-4.6c-1.3-1.1-3-1.6-5.3-1.6c-2.7,0-4.7,0.5-5.8,1.5    c-1.2,1-1.7,2.1-1.7,3.4c0,0.8,0.2,1.6,0.7,2.3c0.5,0.7,1.2,1.3,2.3,1.7c0.6,0.2,2.3,0.8,5.2,1.6c4.2,1.2,7.1,2.2,8.8,3    c1.7,0.8,3,1.9,3.9,3.4c0.9,1.5,1.4,3.3,1.4,5.5c0,2.1-0.6,4.2-1.7,6.1c-1.1,1.9-2.8,3.4-5,4.4c-2.2,1-4.6,1.6-7.4,1.6    c-4.5,0-8-1-10.4-3.1C655.5,136.7,654,133.7,653.3,129.6z"></path>
	</g>
</g>
</svg>
