<svg xmlns="http://www.w3.org/2000/svg" xmlns:xlink="http://www.w3.org/1999/xlink" width="1080" zoomAndPan="magnify" viewBox="0 0 810 809.999993" height="1080" preserveAspectRatio="xMidYMid meet" version="1.0"><defs><clipPath id="a8077b6fe2"><path d="M 36.898438 204.570312 L 773.21875 204.570312 L 773.21875 605.574219 L 36.898438 605.574219 Z M 36.898438 204.570312 " clip-rule="nonzero"/></clipPath><clipPath id="a94726c27b"><path d="M 620.601562 515.554688 C 638.042969 513.621094 684.355469 514.015625 725.332031 514.347656 C 725.46875 514.347656 725.605469 514.347656 725.734375 514.34375 C 740.230469 514.144531 753.128906 507.757812 762.054688 496.363281 C 771.851562 483.859375 775.417969 466.570312 771.597656 450.125 C 752.304688 366.753906 727.148438 300.433594 692.523438 251.136719 C 672.679688 222.371094 639.632812 206.554688 617.390625 205.808594 C 467.914062 199.59375 251.984375 216.253906 106.515625 267.488281 C 32.695312 293.488281 21.523438 336.75 54.527344 452.417969 C 54.53125 452.433594 54.535156 452.445312 54.542969 452.460938 C 65.984375 492.210938 88.945312 571.957031 139.488281 571.957031 C 143.230469 571.957031 147.125 571.519531 151.175781 570.597656 C 153.722656 570.027344 156.25 569.480469 158.792969 568.921875 C 160.703125 572.113281 193.691406 597.464844 197.109375 599.765625 L 198.089844 600.425781 C 204.496094 604.738281 215.628906 605.339844 222.332031 605.394531 C 275.027344 600.402344 433.035156 560.699219 476.382812 550.5 C 542.390625 534.96875 603.160156 517.488281 620.601562 515.554688 Z M 620.601562 515.554688 " clip-rule="nonzero"/></clipPath><clipPath id="cebc48ca9c"><path d="M 0.898438 0.570312 L 737.21875 0.570312 L 737.21875 401.519531 L 0.898438 401.519531 Z M 0.898438 0.570312 " clip-rule="nonzero"/></clipPath><clipPath id="5eea3fd4de"><path d="M 584.601562 311.554688 C 602.042969 309.621094 648.355469 310.015625 689.332031 310.347656 C 689.46875 310.347656 689.605469 310.347656 689.734375 310.34375 C 704.230469 310.144531 717.128906 303.757812 726.054688 292.363281 C 735.851562 279.859375 739.417969 262.570312 735.597656 246.125 C 716.304688 162.753906 691.148438 96.433594 656.523438 47.136719 C 636.679688 18.371094 603.632812 2.554688 581.390625 1.808594 C 431.914062 -4.40625 215.984375 12.253906 70.515625 63.488281 C -3.304688 89.488281 -14.476562 132.75 18.527344 248.417969 C 18.53125 248.433594 18.535156 248.445312 18.542969 248.460938 C 29.984375 288.210938 52.945312 367.957031 103.488281 367.957031 C 107.230469 367.957031 111.125 367.519531 115.175781 366.597656 C 117.722656 366.027344 120.25 365.480469 122.792969 364.921875 C 124.703125 368.113281 157.691406 393.464844 161.109375 395.765625 L 162.089844 396.425781 C 168.496094 400.738281 179.628906 401.339844 186.332031 401.394531 C 239.027344 396.402344 397.035156 356.699219 440.382812 346.5 C 506.390625 330.96875 567.160156 313.488281 584.601562 311.554688 Z M 584.601562 311.554688 " clip-rule="nonzero"/></clipPath><clipPath id="e50c6120e5"><rect x="0" width="738" y="0" height="402"/></clipPath><clipPath id="be7b8e6cd8"><path d="M 55.710938 224.328125 L 754.382812 224.328125 L 754.382812 550.085938 L 55.710938 550.085938 Z M 55.710938 224.328125 " clip-rule="nonzero"/></clipPath><clipPath id="e373183b04"><path d="M 72.710938 444.148438 C 90.007812 504.214844 112.152344 557.332031 147.53125 549.273438 C 346.015625 504.875 518.476562 491.015625 725.101562 492.652344 C 745.742188 492.367188 758.074219 471.847656 753.246094 451.050781 C 736.585938 379.070312 713.53125 315.027344 677.050781 263.085938 C 659.863281 238.171875 631.730469 226.265625 616.386719 225.746094 C 459.382812 219.21875 249.359375 238.3125 113.054688 286.320312 C 54.144531 307.066406 40.488281 331.222656 72.710938 444.148438 Z M 72.710938 444.148438 " clip-rule="nonzero"/></clipPath><clipPath id="a9237d4a73"><path d="M 0.710938 0.398438 L 699.382812 0.398438 L 699.382812 326.085938 L 0.710938 326.085938 Z M 0.710938 0.398438 " clip-rule="nonzero"/></clipPath><clipPath id="c80546f102"><path d="M 17.710938 220.148438 C 35.007812 280.214844 57.152344 333.332031 92.53125 325.273438 C 291.015625 280.875 463.476562 267.015625 670.101562 268.652344 C 690.742188 268.367188 703.074219 247.847656 698.246094 227.050781 C 681.585938 155.070312 658.53125 91.027344 622.050781 39.085938 C 604.863281 14.171875 576.730469 2.265625 561.386719 1.746094 C 404.382812 -4.78125 194.359375 14.3125 58.054688 62.320312 C -0.855469 83.066406 -14.511719 107.222656 17.710938 220.148438 Z M 17.710938 220.148438 " clip-rule="nonzero"/></clipPath><clipPath id="ceafbc5a4e"><rect x="0" width="700" y="0" height="327"/></clipPath><clipPath id="4258a58156"><path d="M 173.441406 453.546875 L 701.953125 453.546875 L 701.953125 585.449219 L 173.441406 585.449219 Z M 173.441406 453.546875 " clip-rule="nonzero"/></clipPath><clipPath id="8f651ff0d7"><path d="M 673.957031 454.074219 C 670.988281 453.847656 668 453.613281 665.046875 453.792969 C 664.214844 453.84375 663.472656 455.3125 662.691406 456.128906 C 662.292969 456.574219 661.457031 457.433594 661.457031 457.433594 C 661.457031 457.433594 662.292969 456.574219 662.691406 456.128906 C 661.164062 455.867188 659.640625 455.414062 658.113281 455.378906 C 651.558594 455.226562 654.9375 454.980469 648.382812 454.941406 C 634.898438 454.863281 621.398438 454.605469 607.945312 455.035156 C 586.433594 455.726562 564.847656 456.964844 543.394531 458.523438 C 531.132812 459.414062 518.871094 460.722656 506.625 461.929688 C 497.820312 462.800781 489 463.503906 480.230469 464.636719 C 463.828125 466.761719 447.46875 469.167969 431.148438 471.777344 C 419.386719 473.660156 407.65625 475.765625 395.953125 477.984375 C 386.148438 479.84375 376.394531 482.011719 366.609375 483.933594 C 356.0625 486.003906 345.492188 487.90625 334.957031 489.996094 C 329.691406 491.042969 324.464844 492.316406 319.1875 493.285156 C 305.617188 495.777344 292.007812 498.015625 278.511719 500.894531 C 264.648438 503.847656 250.878906 507.300781 237.136719 510.824219 C 222.535156 514.570312 208.925781 521.097656 196.285156 529.957031 C 194.035156 531.535156 191.675781 533.058594 189.796875 535.105469 C 188.230469 536.8125 187.328125 539.28125 186.070312 541.363281 C 184.898438 543.300781 183.222656 543.875 181.15625 543.695312 C 180.085938 543.605469 178.644531 543.703125 177.964844 544.425781 C 176.34375 546.152344 174.894531 548.183594 173.742188 550.34375 C 173.265625 551.242188 173.40625 552.945312 173.828125 553.996094 C 174.425781 555.488281 175.304688 557.179688 176.484375 557.980469 C 181.746094 561.542969 186.417969 565.890625 190.777344 570.738281 C 191.839844 571.917969 193.109375 573.136719 194.472656 573.640625 C 199.566406 575.527344 204.074219 578.679688 208.632812 581.746094 C 211.605469 583.742188 214.851562 585.160156 218.253906 585.1875 C 224.234375 585.234375 230.253906 585.976562 236.195312 584.738281 C 245.019531 582.902344 253.804688 580.753906 262.835938 580.398438 C 264.308594 580.339844 265.75 579.671875 267.210938 579.300781 C 272.316406 578.007812 277.507812 577.023438 282.519531 575.375 C 286.5625 574.042969 290.539062 573.625 294.710938 574.023438 C 299.242188 574.457031 303.828125 573.765625 307.953125 571.933594 C 312.195312 570.046875 316.441406 568.699219 320.941406 568.257812 C 323.316406 568.019531 325.316406 567 326.757812 564.890625 C 329.1875 561.332031 332.496094 559.558594 336.230469 558.527344 C 339.433594 557.644531 342.363281 558.082031 344.019531 561.714844 C 345.335938 564.601562 347.273438 565.191406 349.570312 564.351562 C 351.683594 563.582031 353.636719 562.261719 355.660156 561.1875 C 356.886719 557.667969 360.445312 559.222656 362.1875 557.511719 C 365.488281 554.269531 370.019531 554.714844 373.378906 551.945312 C 373.890625 551.523438 375.695312 553.136719 375.773438 554.144531 C 375.832031 554.925781 375.441406 555.75 375.519531 556.523438 C 375.6875 558.140625 377.054688 558.785156 379.082031 558.34375 C 380.457031 558.046875 381.351562 557.066406 381.214844 555.859375 C 381.117188 555.027344 380.8125 554.226562 380.65625 553.402344 C 380.132812 550.679688 380.148438 550.601562 382.15625 549.472656 C 382.820312 549.097656 383.570312 548.910156 384.28125 548.636719 C 384.667969 546.855469 385.328125 545.390625 386.242188 544.222656 C 386.632812 543.722656 387.074219 543.277344 387.558594 542.886719 C 387.882812 542.625 388.589844 542.179688 388.589844 542.179688 C 388.589844 542.179688 387.882812 542.625 387.558594 542.886719 C 387.074219 543.277344 386.632812 543.722656 386.242188 544.222656 C 385.328125 545.390625 384.667969 546.855469 384.28125 548.636719 C 386.128906 548.867188 387.96875 549.210938 389.816406 549.300781 C 393.144531 549.464844 396.46875 548.9375 399.671875 550.964844 C 400.75 551.648438 402.691406 551.320312 403.945312 550.703125 C 406.652344 549.371094 409.582031 548.050781 411.65625 545.808594 C 413.765625 543.527344 416.039062 542.871094 418.632812 542.449219 C 421.585938 541.964844 424.496094 541.324219 427.546875 541.96875 C 428.445312 542.160156 429.632812 541.417969 430.488281 540.765625 C 432.335938 539.351562 433.730469 539.933594 435.503906 541.25 C 437.867188 543.003906 439.648438 542.292969 440.9375 539.476562 C 441.417969 538.425781 441.378906 537.054688 441.574219 535.832031 C 441.960938 535.164062 442.507812 534.871094 443.207031 534.957031 C 444.6875 535.144531 446.207031 535.632812 447.667969 535.496094 C 451.035156 535.179688 454.367188 534.398438 457.734375 534.132812 C 461.121094 533.863281 464.390625 533.4375 467.679688 532.265625 C 472.660156 530.492188 477.785156 529.019531 482.960938 528.183594 C 487.855469 527.390625 492.609375 526.933594 496.519531 522.910156 C 497.460938 521.941406 499.355469 522.121094 500.824219 521.851562 C 501.933594 521.648438 503.0625 521.574219 504.171875 521.386719 C 504.191406 521.382812 504.234375 520.425781 504.035156 520.261719 C 503.464844 519.773438 502.730469 519.539062 502.148438 519.0625 C 500.714844 517.902344 500.878906 516.21875 502.480469 515.199219 C 505.515625 513.273438 507.773438 514.011719 508.855469 517.339844 C 509.117188 518.132812 509.125 519.027344 509.324219 519.851562 C 509.625 521.085938 509.980469 522.429688 511.488281 522.011719 C 513.414062 521.480469 515.175781 522.15625 517.023438 522.589844 C 517.996094 522.816406 519.511719 522.53125 520.109375 521.785156 C 522.566406 518.699219 526.175781 518.527344 529.179688 516.867188 C 530.972656 515.875 532.777344 516.148438 534.652344 516.921875 C 539.316406 518.859375 544.035156 520.132812 548.867188 517.769531 C 554.882812 518.421875 559.621094 514.574219 564.753906 512.144531 C 565.789062 511.65625 566.289062 510.453125 565.859375 508.992188 C 565.625 508.191406 565.476562 507.328125 565.441406 506.484375 C 565.339844 503.871094 566.886719 501.894531 568.738281 502.671875 C 572.507812 504.261719 575.929688 503.886719 579.761719 502.613281 C 584.105469 501.171875 588.347656 499.628906 592.546875 497.683594 C 597.402344 495.433594 602.433594 493.90625 607.828125 493.210938 C 614.132812 492.390625 620.496094 490.804688 626.375 487.695312 C 627.921875 486.875 625.539062 485.441406 625.820312 483.726562 C 625.957031 482.894531 625.949219 482.027344 626.007812 481.179688 C 623.652344 480.648438 621.96875 481.410156 621.96875 481.410156 C 621.96875 481.410156 623.652344 480.648438 626.007812 481.179688 C 627.664062 481.144531 629.320312 481.113281 630.976562 481.082031 C 631.433594 483.324219 632.5625 485.015625 634.625 485.351562 C 642.078125 486.578125 648.632812 483.800781 654.765625 479.523438 C 655.542969 478.984375 655.710938 477.363281 656.160156 476.238281 C 659.769531 474.644531 653.59375 473.964844 657.472656 473.632812 C 663.511719 473.726562 669.550781 473.871094 675.589844 473.945312 C 677.53125 473.96875 679.273438 473.359375 680.527344 471.488281 C 681.824219 469.558594 683.652344 469.121094 685.527344 470.234375 C 690.34375 473.097656 695.265625 475.027344 700.773438 473.738281 C 701.722656 473.515625 702.109375 472.902344 701.839844 471.855469 C 701.75 471.507812 701.578125 471.050781 701.328125 470.90625 C 698.683594 469.394531 695.351562 469.539062 693.382812 466.300781 C 692.839844 465.40625 694.382812 464.691406 693.347656 464.628906 C 687.679688 464.292969 682.03125 462.761719 676.335938 463.871094 C 673.464844 463.296875 670.484375 464.429688 667.667969 463.023438 C 668.082031 461.050781 668.152344 458.953125 670.523438 458.292969 C 671.894531 457.910156 673.121094 456.871094 674.359375 456.039062 C 674.550781 455.910156 674.636719 455.160156 674.484375 454.914062 C 674.1875 454.433594 674.210938 454.195312 674.304688 454.085938 C 674.214844 454.089844 674.109375 454.085938 673.957031 454.074219 Z M 673.957031 454.074219 " clip-rule="nonzero"/></clipPath><clipPath id="e95c4015c7"><path d="M 0.441406 0.601562 L 528.953125 0.601562 L 528.953125 132.449219 L 0.441406 132.449219 Z M 0.441406 0.601562 " clip-rule="nonzero"/></clipPath><clipPath id="3b4dfabbef"><path d="M 500.957031 1.074219 C 497.988281 0.847656 495 0.613281 492.046875 0.792969 C 491.214844 0.84375 490.472656 2.3125 489.691406 3.128906 C 489.292969 3.574219 488.457031 4.433594 488.457031 4.433594 C 488.457031 4.433594 489.292969 3.574219 489.691406 3.128906 C 488.164062 2.867188 486.640625 2.414062 485.113281 2.378906 C 478.558594 2.226562 481.9375 1.980469 475.382812 1.941406 C 461.898438 1.863281 448.398438 1.605469 434.945312 2.035156 C 413.433594 2.726562 391.847656 3.964844 370.394531 5.523438 C 358.132812 6.414062 345.871094 7.722656 333.625 8.929688 C 324.820312 9.800781 316 10.503906 307.230469 11.636719 C 290.828125 13.761719 274.46875 16.167969 258.148438 18.777344 C 246.386719 20.660156 234.65625 22.765625 222.953125 24.984375 C 213.148438 26.84375 203.394531 29.011719 193.609375 30.933594 C 183.0625 33.003906 172.492188 34.90625 161.957031 36.996094 C 156.691406 38.042969 151.464844 39.316406 146.1875 40.285156 C 132.617188 42.777344 119.007812 45.015625 105.511719 47.894531 C 91.648438 50.847656 77.878906 54.300781 64.136719 57.824219 C 49.535156 61.570312 35.925781 68.097656 23.285156 76.957031 C 21.035156 78.535156 18.675781 80.058594 16.796875 82.105469 C 15.230469 83.8125 14.328125 86.28125 13.070312 88.363281 C 11.898438 90.300781 10.222656 90.875 8.15625 90.695312 C 7.085938 90.605469 5.644531 90.703125 4.964844 91.425781 C 3.34375 93.152344 1.894531 95.183594 0.742188 97.34375 C 0.265625 98.242188 0.40625 99.945312 0.828125 100.996094 C 1.425781 102.488281 2.304688 104.179688 3.484375 104.980469 C 8.746094 108.542969 13.417969 112.890625 17.777344 117.738281 C 18.839844 118.917969 20.109375 120.136719 21.472656 120.640625 C 26.566406 122.527344 31.074219 125.679688 35.632812 128.746094 C 38.605469 130.742188 41.851562 132.160156 45.253906 132.1875 C 51.234375 132.234375 57.253906 132.976562 63.195312 131.738281 C 72.019531 129.902344 80.804688 127.753906 89.835938 127.398438 C 91.308594 127.339844 92.75 126.671875 94.210938 126.300781 C 99.316406 125.007812 104.507812 124.023438 109.519531 122.375 C 113.5625 121.042969 117.539062 120.625 121.710938 121.023438 C 126.242188 121.457031 130.828125 120.765625 134.953125 118.933594 C 139.195312 117.046875 143.441406 115.699219 147.941406 115.257812 C 150.316406 115.019531 152.316406 114 153.757812 111.890625 C 156.1875 108.332031 159.496094 106.558594 163.230469 105.527344 C 166.433594 104.644531 169.363281 105.082031 171.019531 108.714844 C 172.335938 111.601562 174.273438 112.191406 176.570312 111.351562 C 178.683594 110.582031 180.636719 109.261719 182.660156 108.1875 C 183.886719 104.667969 187.445312 106.222656 189.1875 104.511719 C 192.488281 101.269531 197.019531 101.714844 200.378906 98.945312 C 200.890625 98.523438 202.695312 100.136719 202.773438 101.144531 C 202.832031 101.925781 202.441406 102.75 202.519531 103.523438 C 202.6875 105.140625 204.054688 105.785156 206.082031 105.34375 C 207.457031 105.046875 208.351562 104.066406 208.214844 102.859375 C 208.117188 102.027344 207.8125 101.226562 207.65625 100.402344 C 207.132812 97.679688 207.148438 97.601562 209.15625 96.472656 C 209.820312 96.097656 210.570312 95.910156 211.28125 95.636719 C 211.667969 93.855469 212.328125 92.390625 213.242188 91.222656 C 213.632812 90.722656 214.074219 90.277344 214.558594 89.886719 C 214.882812 89.625 215.589844 89.179688 215.589844 89.179688 C 215.589844 89.179688 214.882812 89.625 214.558594 89.886719 C 214.074219 90.277344 213.632812 90.722656 213.242188 91.222656 C 212.328125 92.390625 211.667969 93.855469 211.28125 95.636719 C 213.128906 95.867188 214.96875 96.210938 216.816406 96.300781 C 220.144531 96.464844 223.46875 95.9375 226.671875 97.964844 C 227.75 98.648438 229.691406 98.320312 230.945312 97.703125 C 233.652344 96.371094 236.582031 95.050781 238.65625 92.808594 C 240.765625 90.527344 243.039062 89.871094 245.632812 89.449219 C 248.585938 88.964844 251.496094 88.324219 254.546875 88.96875 C 255.445312 89.160156 256.632812 88.417969 257.488281 87.765625 C 259.335938 86.351562 260.730469 86.933594 262.503906 88.25 C 264.867188 90.003906 266.648438 89.292969 267.9375 86.476562 C 268.417969 85.425781 268.378906 84.054688 268.574219 82.832031 C 268.960938 82.164062 269.507812 81.871094 270.207031 81.957031 C 271.6875 82.144531 273.207031 82.632812 274.667969 82.496094 C 278.035156 82.179688 281.367188 81.398438 284.734375 81.132812 C 288.121094 80.863281 291.390625 80.4375 294.679688 79.265625 C 299.660156 77.492188 304.785156 76.019531 309.960938 75.183594 C 314.855469 74.390625 319.609375 73.933594 323.519531 69.910156 C 324.460938 68.941406 326.355469 69.121094 327.824219 68.851562 C 328.933594 68.648438 330.0625 68.574219 331.171875 68.386719 C 331.191406 68.382812 331.234375 67.425781 331.035156 67.261719 C 330.464844 66.773438 329.730469 66.539062 329.148438 66.0625 C 327.714844 64.902344 327.878906 63.21875 329.480469 62.199219 C 332.515625 60.273438 334.773438 61.011719 335.855469 64.339844 C 336.117188 65.132812 336.125 66.027344 336.324219 66.851562 C 336.625 68.085938 336.980469 69.429688 338.488281 69.011719 C 340.414062 68.480469 342.175781 69.15625 344.023438 69.589844 C 344.996094 69.816406 346.511719 69.53125 347.109375 68.785156 C 349.566406 65.699219 353.175781 65.527344 356.179688 63.867188 C 357.972656 62.875 359.777344 63.148438 361.652344 63.921875 C 366.316406 65.859375 371.035156 67.132812 375.867188 64.769531 C 381.882812 65.421875 386.621094 61.574219 391.753906 59.144531 C 392.789062 58.65625 393.289062 57.453125 392.859375 55.992188 C 392.625 55.191406 392.476562 54.328125 392.441406 53.484375 C 392.339844 50.871094 393.886719 48.894531 395.738281 49.671875 C 399.507812 51.261719 402.929688 50.886719 406.761719 49.613281 C 411.105469 48.171875 415.347656 46.628906 419.546875 44.683594 C 424.402344 42.433594 429.433594 40.90625 434.828125 40.210938 C 441.132812 39.390625 447.496094 37.804688 453.375 34.695312 C 454.921875 33.875 452.539062 32.441406 452.820312 30.726562 C 452.957031 29.894531 452.949219 29.027344 453.007812 28.179688 C 450.652344 27.648438 448.96875 28.410156 448.96875 28.410156 C 448.96875 28.410156 450.652344 27.648438 453.007812 28.179688 C 454.664062 28.144531 456.320312 28.113281 457.976562 28.082031 C 458.433594 30.324219 459.5625 32.015625 461.625 32.351562 C 469.078125 33.578125 475.632812 30.800781 481.765625 26.523438 C 482.542969 25.984375 482.710938 24.363281 483.160156 23.238281 C 486.769531 21.644531 480.59375 20.964844 484.472656 20.632812 C 490.511719 20.726562 496.550781 20.871094 502.589844 20.945312 C 504.53125 20.96875 506.273438 20.359375 507.527344 18.488281 C 508.824219 16.558594 510.652344 16.121094 512.527344 17.234375 C 517.34375 20.097656 522.265625 22.027344 527.773438 20.738281 C 528.722656 20.515625 529.109375 19.902344 528.839844 18.855469 C 528.75 18.507812 528.578125 18.050781 528.328125 17.90625 C 525.683594 16.394531 522.351562 16.539062 520.382812 13.300781 C 519.839844 12.40625 521.382812 11.691406 520.347656 11.628906 C 514.679688 11.292969 509.03125 9.761719 503.335938 10.871094 C 500.464844 10.296875 497.484375 11.429688 494.667969 10.023438 C 495.082031 8.050781 495.152344 5.953125 497.523438 5.292969 C 498.894531 4.910156 500.121094 3.871094 501.359375 3.039062 C 501.550781 2.910156 501.636719 2.160156 501.484375 1.914062 C 501.1875 1.433594 501.210938 1.195312 501.304688 1.085938 C 501.214844 1.089844 501.109375 1.085938 500.957031 1.074219 Z M 500.957031 1.074219 " clip-rule="nonzero"/></clipPath><clipPath id="5cbffef2e7"><rect x="0" width="529" y="0" height="133"/></clipPath><clipPath id="0a2f3d7ec7"><path d="M 555.125 312.46875 L 685.625 312.46875 L 685.625 440.71875 L 555.125 440.71875 Z M 555.125 312.46875 " clip-rule="nonzero"/></clipPath><clipPath id="808e1f3a9f"><path d="M 305.222656 312.464844 L 419.28125 312.464844 L 419.28125 438.398438 L 305.222656 438.398438 Z M 305.222656 312.464844 " clip-rule="nonzero"/></clipPath><clipPath id="307fbcdde9"><path d="M 419.09375 378.539062 C 419.089844 370.988281 419.085938 363.855469 418.347656 356.289062 C 416.871094 341.171875 410.152344 329.554688 398.378906 321.757812 C 390.257812 316.378906 376.945312 312.917969 362.589844 312.5 C 356.105469 312.273438 333.785156 312.652344 319.082031 326.859375 C 310.1875 335.453125 305.679688 347.453125 305.679688 362.464844 C 305.332031 379.230469 305.386719 396.070312 305.441406 412.355469 C 305.464844 419.390625 305.488281 426.441406 305.480469 433.539062 C 305.480469 434.265625 305.605469 434.902344 305.707031 435.414062 L 305.785156 435.851562 C 306.003906 437.289062 307.242188 438.355469 308.699219 438.355469 L 337.648438 438.355469 C 339.273438 438.355469 340.59375 437.035156 340.59375 435.40625 L 340.59375 431.074219 C 340.597656 424.351562 340.585938 417.671875 340.578125 411.011719 C 340.550781 395.742188 340.527344 379.949219 340.699219 364.230469 C 340.835938 351.816406 347.863281 345.925781 362.8125 345.6875 C 372.835938 345.523438 381.949219 351.683594 383.386719 359.695312 C 383.90625 362.585938 383.957031 365.738281 383.964844 368.46875 C 384.003906 384.410156 384 400.070312 383.996094 415.871094 L 383.992188 435.453125 C 383.992188 437.078125 385.3125 438.398438 386.9375 438.398438 L 416.191406 438.398438 C 417.816406 438.398438 419.136719 437.078125 419.136719 435.453125 L 419.148438 420.046875 C 419.164062 407.839844 419.179688 395.746094 419.109375 383.65625 C 419.097656 381.9375 419.097656 380.234375 419.09375 378.539062 Z M 419.09375 378.539062 " clip-rule="nonzero"/></clipPath><clipPath id="f944a5c381"><path d="M 0.28125 0.464844 L 114.28125 0.464844 L 114.28125 126.398438 L 0.28125 126.398438 Z M 0.28125 0.464844 " clip-rule="nonzero"/></clipPath><clipPath id="a5f0f16298"><path d="M 114.09375 66.539062 C 114.089844 58.988281 114.085938 51.855469 113.347656 44.289062 C 111.871094 29.171875 105.152344 17.554688 93.378906 9.757812 C 85.257812 4.378906 71.945312 0.917969 57.589844 0.5 C 51.105469 0.273438 28.785156 0.652344 14.082031 14.859375 C 5.1875 23.453125 0.679688 35.453125 0.679688 50.464844 C 0.332031 67.230469 0.386719 84.070312 0.441406 100.355469 C 0.464844 107.390625 0.488281 114.441406 0.480469 121.539062 C 0.480469 122.265625 0.605469 122.902344 0.707031 123.414062 L 0.785156 123.851562 C 1.003906 125.289062 2.242188 126.355469 3.699219 126.355469 L 32.648438 126.355469 C 34.273438 126.355469 35.59375 125.035156 35.59375 123.40625 L 35.59375 119.074219 C 35.597656 112.351562 35.585938 105.671875 35.578125 99.011719 C 35.550781 83.742188 35.527344 67.949219 35.699219 52.230469 C 35.835938 39.816406 42.863281 33.925781 57.8125 33.6875 C 67.835938 33.523438 76.949219 39.683594 78.386719 47.695312 C 78.90625 50.585938 78.957031 53.738281 78.964844 56.46875 C 79.003906 72.410156 79 88.070312 78.996094 103.871094 L 78.992188 123.453125 C 78.992188 125.078125 80.3125 126.398438 81.9375 126.398438 L 111.191406 126.398438 C 112.816406 126.398438 114.136719 125.078125 114.136719 123.453125 L 114.148438 108.046875 C 114.164062 95.839844 114.179688 83.746094 114.109375 71.65625 C 114.097656 69.9375 114.097656 68.234375 114.09375 66.539062 Z M 114.09375 66.539062 " clip-rule="nonzero"/></clipPath><clipPath id="07cc684985"><rect x="0" width="115" y="0" height="127"/></clipPath><clipPath id="740689f864"><path d="M 122.625 314.691406 L 233.625 314.691406 L 233.625 438.441406 L 122.625 438.441406 Z M 122.625 314.691406 " clip-rule="nonzero"/></clipPath><clipPath id="f66057f825"><path d="M 248.632812 314.722656 L 283.476562 314.722656 L 283.476562 438.640625 L 248.632812 438.640625 Z M 248.632812 314.722656 " clip-rule="nonzero"/></clipPath><clipPath id="a701723d0e"><path d="M 280.527344 314.722656 L 251.714844 314.722656 C 250.085938 314.722656 248.765625 316.042969 248.765625 317.667969 L 248.765625 435.613281 C 248.765625 437.242188 250.085938 438.5625 251.714844 438.5625 L 280.527344 438.5625 C 282.15625 438.5625 283.476562 437.242188 283.476562 435.613281 L 283.476562 317.667969 C 283.476562 316.042969 282.15625 314.722656 280.527344 314.722656 Z M 280.527344 314.722656 " clip-rule="nonzero"/></clipPath><clipPath id="de7635329e"><path d="M 0.640625 0.722656 L 35.476562 0.722656 L 35.476562 124.640625 L 0.640625 124.640625 Z M 0.640625 0.722656 " clip-rule="nonzero"/></clipPath><clipPath id="a44b90fdc9"><path d="M 32.527344 0.722656 L 3.714844 0.722656 C 2.085938 0.722656 0.765625 2.042969 0.765625 3.667969 L 0.765625 121.613281 C 0.765625 123.242188 2.085938 124.5625 3.714844 124.5625 L 32.527344 124.5625 C 34.15625 124.5625 35.476562 123.242188 35.476562 121.613281 L 35.476562 3.667969 C 35.476562 2.042969 34.15625 0.722656 32.527344 0.722656 Z M 32.527344 0.722656 " clip-rule="nonzero"/></clipPath><clipPath id="c30d669982"><rect x="0" width="36" y="0" height="125"/></clipPath><clipPath id="c7c7d4a28c"><path d="M 434.730469 312.496094 L 551.347656 312.496094 L 551.347656 440.808594 L 434.730469 440.808594 Z M 434.730469 312.496094 " clip-rule="nonzero"/></clipPath><clipPath id="bc91d67190"><path d="M 541.117188 399.675781 C 539.671875 397.226562 537.234375 395.546875 534.429688 395.074219 C 531.671875 394.605469 528.878906 395.367188 526.761719 397.160156 C 524.277344 399.265625 521.570312 401.175781 518.722656 402.835938 C 516.738281 403.992188 514.652344 405.042969 512.652344 405.90625 C 505.886719 408.472656 498.277344 408.679688 491.34375 406.480469 C 484.40625 404.277344 478.398438 399.746094 474.507812 393.855469 C 471.511719 388.714844 470.015625 382.308594 470.179688 375.335938 C 470.1875 375.007812 470.207031 374.6875 470.230469 374.210938 C 470.4375 370.308594 471.21875 366.628906 472.554688 363.28125 C 477.855469 352.644531 489.078125 345.777344 501.171875 345.777344 C 504.828125 345.777344 508.421875 346.382812 511.726562 347.53125 C 512.433594 347.816406 513.136719 348.109375 513.828125 348.417969 C 515.140625 349.003906 516.523438 349.699219 518.050781 350.535156 C 521.03125 352.164062 523.851562 354.054688 526.445312 356.148438 C 528.703125 357.96875 531.613281 358.691406 534.433594 358.125 C 537.199219 357.570312 539.558594 355.828125 540.90625 353.34375 L 550.128906 336.296875 C 550.730469 335.1875 550.554688 333.820312 549.699219 332.894531 C 544.066406 326.804688 537.257812 321.953125 529.46875 318.472656 C 519.183594 313.878906 507.691406 311.914062 495.316406 312.648438 C 466.441406 314.351562 444.117188 331.980469 437.058594 358.652344 C 435.171875 365.78125 434.425781 373.351562 434.84375 381.160156 C 435.128906 386.476562 436.019531 391.675781 437.496094 396.621094 C 445.539062 423.566406 470.105469 440.632812 500.484375 440.628906 C 501.335938 440.628906 502.199219 440.617188 503.058594 440.589844 C 512.792969 440.285156 521.902344 438.214844 530.128906 434.441406 C 537.976562 430.84375 544.808594 425.820312 550.441406 419.519531 C 551.296875 418.5625 551.433594 417.164062 550.785156 416.058594 Z M 541.117188 399.675781 " clip-rule="nonzero"/></clipPath><clipPath id="099b42f846"><path d="M 0.730469 0.496094 L 117.347656 0.496094 L 117.347656 128.640625 L 0.730469 128.640625 Z M 0.730469 0.496094 " clip-rule="nonzero"/></clipPath><clipPath id="24f6d2d263"><path d="M 107.117188 87.675781 C 105.671875 85.226562 103.234375 83.546875 100.429688 83.074219 C 97.671875 82.605469 94.878906 83.367188 92.761719 85.160156 C 90.277344 87.265625 87.570312 89.175781 84.722656 90.835938 C 82.738281 91.992188 80.652344 93.042969 78.652344 93.90625 C 71.886719 96.472656 64.277344 96.679688 57.34375 94.480469 C 50.40625 92.277344 44.398438 87.746094 40.507812 81.855469 C 37.511719 76.714844 36.015625 70.308594 36.179688 63.335938 C 36.1875 63.007812 36.207031 62.6875 36.230469 62.210938 C 36.4375 58.308594 37.21875 54.628906 38.554688 51.28125 C 43.855469 40.644531 55.078125 33.777344 67.171875 33.777344 C 70.828125 33.777344 74.421875 34.382812 77.726562 35.53125 C 78.433594 35.816406 79.136719 36.109375 79.828125 36.417969 C 81.140625 37.003906 82.523438 37.699219 84.050781 38.535156 C 87.03125 40.164062 89.851562 42.054688 92.445312 44.148438 C 94.703125 45.96875 97.613281 46.691406 100.433594 46.125 C 103.199219 45.570312 105.558594 43.828125 106.90625 41.34375 L 116.128906 24.296875 C 116.730469 23.1875 116.554688 21.820312 115.699219 20.894531 C 110.066406 14.804688 103.257812 9.953125 95.46875 6.472656 C 85.183594 1.878906 73.691406 -0.0859375 61.316406 0.648438 C 32.441406 2.351562 10.117188 19.980469 3.058594 46.652344 C 1.171875 53.78125 0.425781 61.351562 0.84375 69.160156 C 1.128906 74.476562 2.019531 79.675781 3.496094 84.621094 C 11.539062 111.566406 36.105469 128.632812 66.484375 128.628906 C 67.335938 128.628906 68.199219 128.617188 69.058594 128.589844 C 78.792969 128.285156 87.902344 126.214844 96.128906 122.441406 C 103.976562 118.84375 110.808594 113.820312 116.441406 107.519531 C 117.296875 106.5625 117.433594 105.164062 116.785156 104.058594 Z M 107.117188 87.675781 " clip-rule="nonzero"/></clipPath><clipPath id="03512bb9a4"><rect x="0" width="118" y="0" height="129"/></clipPath></defs><g clip-path="url(#a8077b6fe2)"><g clip-path="url(#a94726c27b)"><g transform="matrix(1, 0, 0, 1, 36, 204)"><g clip-path="url(#e50c6120e5)"><g clip-path="url(#cebc48ca9c)"><g clip-path="url(#5eea3fd4de)"><path fill="#ffffff" d="M 0.898438 0.570312 L 737.039062 0.570312 L 737.039062 401.394531 L 0.898438 401.394531 Z M 0.898438 0.570312 " fill-opacity="1" fill-rule="nonzero"/></g></g></g></g></g></g><g clip-path="url(#be7b8e6cd8)"><g clip-path="url(#e373183b04)"><g transform="matrix(1, 0, 0, 1, 55, 224)"><g clip-path="url(#ceafbc5a4e)"><g clip-path="url(#a9237d4a73)"><g clip-path="url(#c80546f102)"><path fill="#231f20" d="M 0.710938 0.507812 L 699.203125 0.507812 L 699.203125 326.085938 L 0.710938 326.085938 Z M 0.710938 0.507812 " fill-opacity="1" fill-rule="nonzero"/></g></g></g></g></g></g><g clip-path="url(#4258a58156)"><g clip-path="url(#8f651ff0d7)"><g transform="matrix(1, 0, 0, 1, 173, 453)"><g clip-path="url(#5cbffef2e7)"><g clip-path="url(#e95c4015c7)"><g clip-path="url(#3b4dfabbef)"><path fill="#ef4029" d="M 0.441406 0.726562 L 528.953125 0.726562 L 528.953125 132.449219 L 0.441406 132.449219 Z M 0.441406 0.726562 " fill-opacity="1" fill-rule="nonzero"/></g></g></g></g></g></g><g clip-path="url(#0a2f3d7ec7)"><path fill="#ffcf01" d="M 647.570312 389.867188 C 642.503906 402.335938 629.699219 409.402344 615.726562 407.453125 C 598.832031 405.101562 589.53125 393.097656 589.539062 373.65625 C 589.714844 367.136719 591.992188 355.289062 605.210938 348.882812 C 616.972656 343.183594 628.171875 344.050781 638.503906 351.457031 C 649.222656 359.144531 653.203125 376.015625 647.570312 389.867188 M 632.238281 313.511719 C 616.242188 310.796875 599.425781 313.441406 586.09375 320.769531 C 567.679688 330.886719 557.6875 346.90625 555.550781 369.746094 C 553.261719 394.191406 560.1875 412.636719 576.730469 426.136719 C 588.550781 435.785156 602.695312 440.648438 618.878906 440.648438 C 622.144531 440.648438 625.496094 440.449219 628.925781 440.054688 C 662.492188 436.171875 685.804688 410.015625 685.613281 376.445312 C 685.539062 362.832031 681.261719 349.085938 673.878906 338.730469 C 664.386719 325.414062 649.597656 316.457031 632.238281 313.511719 " fill-opacity="1" fill-rule="nonzero"/></g><g clip-path="url(#808e1f3a9f)"><g clip-path="url(#307fbcdde9)"><g transform="matrix(1, 0, 0, 1, 305, 312)"><g clip-path="url(#07cc684985)"><g clip-path="url(#f944a5c381)"><g clip-path="url(#a5f0f16298)"><path fill="#ffcf01" d="M 0.402344 0.464844 L 114.101562 0.464844 L 114.101562 126.398438 L 0.402344 126.398438 Z M 0.402344 0.464844 " fill-opacity="1" fill-rule="nonzero"/></g></g></g></g></g></g><g clip-path="url(#740689f864)"><path fill="#ffcf01" d="M 157.699219 352.40625 C 157.699219 351.039062 158.238281 349.757812 159.210938 348.800781 C 160.1875 347.847656 161.472656 347.351562 162.839844 347.359375 L 166.332031 347.421875 C 175.09375 347.574219 186 347.765625 191.078125 348.515625 C 196.398438 349.304688 198.109375 355.824219 197.953125 361.171875 C 197.792969 366.886719 195.34375 373.257812 190.355469 373.738281 C 184.835938 374.269531 172.277344 374.101562 163.105469 373.980469 C 161.132812 373.953125 159.300781 373.929688 157.699219 373.914062 Z M 210.941406 319.953125 C 203.964844 316.570312 196.121094 314.800781 187.628906 314.695312 C 187.617188 314.695312 187.609375 314.695312 187.589844 314.695312 L 153.511719 314.75 C 136.480469 314.777344 122.625 328.652344 122.625 345.675781 L 122.625 435.417969 C 122.625 437.042969 123.941406 438.363281 125.570312 438.363281 L 154.582031 438.363281 C 156.210938 438.363281 157.527344 437.042969 157.527344 435.417969 L 157.527344 407.367188 C 159.128906 407.371094 160.96875 407.378906 162.949219 407.386719 C 172.199219 407.425781 183.707031 407.472656 188.933594 407.328125 C 214.519531 406.605469 230.6875 392.097656 233.289062 367.515625 C 235.433594 347.273438 226.035156 327.269531 210.941406 319.953125 " fill-opacity="1" fill-rule="nonzero"/></g><g clip-path="url(#f66057f825)"><g clip-path="url(#a701723d0e)"><g transform="matrix(1, 0, 0, 1, 248, 314)"><g clip-path="url(#c30d669982)"><g clip-path="url(#de7635329e)"><g clip-path="url(#a44b90fdc9)"><path fill="#ffcf01" d="M 0.765625 0.722656 L 35.476562 0.722656 L 35.476562 124.503906 L 0.765625 124.503906 Z M 0.765625 0.722656 " fill-opacity="1" fill-rule="nonzero"/></g></g></g></g></g></g><g clip-path="url(#c7c7d4a28c)"><g clip-path="url(#bc91d67190)"><g transform="matrix(1, 0, 0, 1, 434, 312)"><g clip-path="url(#03512bb9a4)"><g clip-path="url(#099b42f846)"><g clip-path="url(#24f6d2d263)"><path fill="#ffcf01" d="M 0.730469 0.496094 L 117.164062 0.496094 L 117.164062 128.628906 L 0.730469 128.628906 Z M 0.730469 0.496094 " fill-opacity="1" fill-rule="nonzero"/></g></g></g></g></g></g></svg>