<svg width="600" height="700" viewBox="0 0 600 700" fill="none" xmlns="http://www.w3.org/2000/svg">
  <!-- Splash principal -->
  <g class="paint-splash-main">
    <!-- Gota grande central -->
    <ellipse cx="300" cy="350" rx="180" ry="200" fill="white" opacity="0.95">
      <animate attributeName="ry" values="200;210;200" dur="3s" repeatCount="indefinite"/>
    </ellipse>
    
    <!-- Salpicaduras alrededor -->
    <circle cx="150" cy="250" r="45" fill="white" opacity="0.9"/>
    <circle cx="450" cy="280" r="38" fill="white" opacity="0.85"/>
    <circle cx="200" cy="480" r="32" fill="white" opacity="0.8"/>
    <circle cx="420" cy="500" r="28" fill="white" opacity="0.75"/>
    
    <!-- Gotas pequeñas -->
    <circle cx="120" cy="180" r="15" fill="white" opacity="0.7"/>
    <circle cx="480" cy="200" r="18" fill="white" opacity="0.7"/>
    <circle cx="100" cy="400" r="12" fill="white" opacity="0.65"/>
    <circle cx="500" cy="420" r="14" fill="white" opacity="0.65"/>
    
    <!-- Gotas cayendo (animadas) -->
    <circle cx="280" cy="100" r="8" fill="white" opacity="0.6">
      <animate attributeName="cy" values="100;600" dur="2s" repeatCount="indefinite"/>
      <animate attributeName="opacity" values="0.6;0" dur="2s" repeatCount="indefinite"/>
    </circle>
    
    <circle cx="320" cy="120" r="6" fill="white" opacity="0.5">
      <animate attributeName="cy" values="120;620" dur="2.5s" repeatCount="indefinite"/>
      <animate attributeName="opacity" values="0.5;0" dur="2.5s" repeatCount="indefinite"/>
    </circle>
    
    <circle cx="350" cy="80" r="7" fill="white" opacity="0.55">
      <animate attributeName="cy" values="80;580" dur="2.2s" repeatCount="indefinite"/>
      <animate attributeName="opacity" values="0.55;0" dur="2.2s" repeatCount="indefinite"/>
    </circle>
    
    <!-- Manchas irregulares -->
    <path d="M220 200 Q200 220 220 240 T260 240 T280 220 T260 200 T220 200" fill="white" opacity="0.7"/>
    <path d="M380 320 Q360 340 380 360 T420 360 T440 340 T420 320 T380 320" fill="white" opacity="0.75"/>
    
    <!-- Bordes de gota con textura -->
    <path d="M300 150 Q320 180 300 210 Q280 180 300 150" fill="white" opacity="0.8"/>
    <path d="M300 490 Q320 520 300 550 Q280 520 300 490" fill="white" opacity="0.8"/>
  </g>
  
  <!-- Filtro para dar efecto más orgánico -->
  <defs>
    <filter id="goo">
      <feGaussianBlur in="SourceGraphic" stdDeviation="10" result="blur" />
      <feColorMatrix in="blur" mode="matrix" values="1 0 0 0 0  0 1 0 0 0  0 0 1 0 0  0 0 0 18 -8" result="goo" />
      <feBlend in="SourceGraphic" in2="goo" />
    </filter>
  </defs>
  
  <g filter="url(#goo)">
    <ellipse cx="300" cy="350" rx="170" ry="190" fill="white" opacity="0.9"/>
    <circle cx="160" cy="260" r="40" fill="white" opacity="0.85"/>
    <circle cx="440" cy="290" r="35" fill="white" opacity="0.8"/>
  </g>
</svg>
